<svg width="22" height="23" viewBox="0 0 22 23" fill="none" xmlns="http://www.w3.org/2000/svg">
<path d="M9.55716 10.2358C9.22046 10.5726 9.03135 11.0294 9.03143 11.5057C9.03152 11.9819 9.22079 12.4386 9.55761 12.7753C9.89443 13.112 10.3512 13.3011 10.8275 13.3011C11.3037 13.301 11.7604 13.1117 12.0971 12.7749M15.0303 15.7001C13.7708 16.4881 12.3131 16.9013 10.8275 16.8915C7.59535 16.8915 4.90186 15.0959 2.74707 11.5046C3.88911 9.60116 5.18198 8.20234 6.62569 7.30811M9.19348 6.27919C9.73131 6.17032 10.2788 6.11617 10.8275 6.11759C14.0597 6.11759 16.7532 7.91324 18.908 11.5046C18.31 12.5011 17.6699 13.3604 16.9884 14.0813M2.74707 3.42407L18.908 19.585" stroke="#ACB5BB" stroke-width="1.75077" stroke-linecap="round" stroke-linejoin="round"/>
</svg>
