<svg width="18" height="18" viewBox="0 0 18 18" fill="none" xmlns="http://www.w3.org/2000/svg">
<g clip-path="url(#clip0_1196_2346)">
<g clip-path="url(#clip1_1196_2346)">
<g clip-path="url(#clip2_1196_2346)">
<g clip-path="url(#clip3_1196_2346)">
<path d="M16.7104 9.47796L11.0854 3.85296C11.0068 3.77425 10.9066 3.72062 10.7975 3.69886C10.6884 3.67709 10.5753 3.68817 10.4725 3.7307C10.3697 3.77322 10.2818 3.84528 10.2199 3.93775C10.1581 4.03023 10.125 4.13897 10.125 4.25023V7.08734C8.30105 7.24343 6.2866 8.1364 4.62933 9.54195C2.63386 11.2351 1.39144 13.4169 1.13058 15.6852C1.1102 15.8615 1.14595 16.0398 1.23276 16.1946C1.31957 16.3495 1.45301 16.473 1.61409 16.5476C1.77517 16.6222 1.95568 16.6442 2.12994 16.6102C2.30419 16.5763 2.46331 16.4883 2.58464 16.3587C3.35808 15.5354 6.11011 12.9317 10.125 12.7025V15.5002C10.125 15.6115 10.1581 15.7202 10.2199 15.8127C10.2818 15.9052 10.3697 15.9772 10.4725 16.0198C10.5753 16.0623 10.6884 16.0734 10.7975 16.0516C10.9066 16.0298 11.0068 15.9762 11.0854 15.8975L16.7104 10.2725C16.8156 10.167 16.8747 10.0242 16.8747 9.87523C16.8747 9.72628 16.8156 9.58341 16.7104 9.47796ZM11.25 14.1425V12.1252C11.25 11.976 11.1907 11.833 11.0852 11.7275C10.9797 11.622 10.8366 11.5627 10.6875 11.5627C8.71308 11.5627 6.79004 12.0781 4.97175 13.0955C4.0457 13.616 3.18287 14.2417 2.40043 14.9602C2.80824 13.284 3.83621 11.69 5.35707 10.3998C6.98972 9.01531 8.98238 8.18773 10.6875 8.18773C10.8366 8.18773 10.9797 8.12846 11.0852 8.02298C11.1907 7.91749 11.25 7.77441 11.25 7.62523V5.60867L15.5172 9.87523L11.25 14.1425Z" fill="#000B23"/>
</g>
</g>
</g>
</g>
<defs>
<clipPath id="clip0_1196_2346">
<rect width="18" height="18" fill="white"/>
</clipPath>
<clipPath id="clip1_1196_2346">
<rect width="18" height="18" fill="white"/>
</clipPath>
<clipPath id="clip2_1196_2346">
<rect width="18" height="18" fill="white"/>
</clipPath>
<clipPath id="clip3_1196_2346">
<rect width="18" height="18" fill="white"/>
</clipPath>
</defs>
</svg>
