<svg width="18" height="18" viewBox="0 0 18 18" fill="none" xmlns="http://www.w3.org/2000/svg">
<g clip-path="url(#clip0_1196_2354)">
<g clip-path="url(#clip1_1196_2354)">
<g clip-path="url(#clip2_1196_2354)">
<g clip-path="url(#clip3_1196_2354)">
<g clip-path="url(#clip4_1196_2354)">
<g clip-path="url(#clip5_1196_2354)">
<path d="M9.4375 17.1875C9.4375 17.3367 9.37824 17.4798 9.27275 17.5852C9.16726 17.6907 9.02418 17.75 8.875 17.75H4.375C4.22582 17.75 4.08274 17.6907 3.97725 17.5852C3.87176 17.4798 3.8125 17.3367 3.8125 17.1875V4.8125C3.8125 4.66332 3.87176 4.52024 3.97725 4.41475C4.08274 4.30926 4.22582 4.25 4.375 4.25H8.875C9.02418 4.25 9.16726 4.30926 9.27275 4.41475C9.37824 4.52024 9.4375 4.66332 9.4375 4.8125C9.4375 4.96168 9.37824 5.10476 9.27275 5.21025C9.16726 5.31574 9.02418 5.375 8.875 5.375H4.9375V16.625H8.875C9.02418 16.625 9.16726 16.6843 9.27275 16.7898C9.37824 16.8952 9.4375 17.0383 9.4375 17.1875ZM17.148 10.602L14.3355 7.78953C14.2299 7.68398 14.0868 7.62469 13.9375 7.62469C13.7882 7.62469 13.6451 7.68398 13.5395 7.78953C13.434 7.89508 13.3747 8.03823 13.3747 8.1875C13.3747 8.33677 13.434 8.47992 13.5395 8.58547L15.3923 10.4375H8.875C8.72582 10.4375 8.58274 10.4968 8.47725 10.6023C8.37176 10.7077 8.3125 10.8508 8.3125 11C8.3125 11.1492 8.37176 11.2923 8.47725 11.3977C8.58274 11.5032 8.72582 11.5625 8.875 11.5625H15.3923L13.5395 13.4145C13.434 13.5201 13.3747 13.6632 13.3747 13.8125C13.3747 13.9618 13.434 14.1049 13.5395 14.2105C13.6451 14.316 13.7882 14.3753 13.9375 14.3753C14.0868 14.3753 14.2299 14.316 14.3355 14.2105L17.148 11.398C17.2003 11.3457 17.2418 11.2837 17.2701 11.2154C17.2984 11.1471 17.3129 11.0739 17.3129 11C17.3129 10.9261 17.2984 10.8529 17.2701 10.7846C17.2418 10.7163 17.2003 10.6543 17.148 10.602Z" fill="#FF5257"/>
</g>
</g>
</g>
</g>
</g>
</g>
<defs>
<clipPath id="clip0_1196_2354">
<rect width="18" height="18" fill="white"/>
</clipPath>
<clipPath id="clip1_1196_2354">
<rect width="18" height="18" fill="white"/>
</clipPath>
<clipPath id="clip2_1196_2354">
<rect width="18" height="18" fill="white"/>
</clipPath>
<clipPath id="clip3_1196_2354">
<rect width="18" height="18" fill="white"/>
</clipPath>
<clipPath id="clip4_1196_2354">
<rect width="18" height="18" fill="white"/>
</clipPath>
<clipPath id="clip5_1196_2354">
<rect width="18" height="18" fill="white" transform="translate(0 2)"/>
</clipPath>
</defs>
</svg>
