<svg width="28" height="27" viewBox="0 0 28 27" fill="none" xmlns="http://www.w3.org/2000/svg">
<path d="M14.3928 16.737C13.3715 16.737 12.541 15.9064 12.541 14.8852V12.1132C12.541 11.0919 13.3715 10.2614 14.3928 10.2614C15.4141 10.2614 16.2446 11.0919 16.2446 12.1132V14.8852C16.2446 15.9064 15.4141 16.737 14.3928 16.737Z" stroke="#444444" stroke-width="2.02012" stroke-linecap="round"/>
<path d="M19.9822 15.1545C19.7577 18.05 17.3336 20.3171 14.3932 20.3171C11.2957 20.3171 8.78174 17.8032 8.78174 14.7056V12.3039C8.78174 9.20643 11.2957 6.6925 14.3932 6.6925C17.2999 6.6925 19.6904 8.9034 19.9709 11.7316" stroke="#444444" stroke-width="2.02012" stroke-linecap="round"/>
<path d="M17.7593 2.28198H20.0038C23.3707 2.28198 25.6153 4.52655 25.6153 7.89341V10.138" stroke="#444444" stroke-width="2.02012" stroke-miterlimit="10" stroke-linecap="round" stroke-linejoin="round"/>
<path d="M3.16943 10.138V7.89341C3.16943 4.52655 5.41401 2.28198 8.78086 2.28198H11.0254" stroke="#444444" stroke-width="2.02012" stroke-miterlimit="10" stroke-linecap="round" stroke-linejoin="round"/>
<path d="M17.7593 24.7278H20.0038C23.3707 24.7278 25.6153 22.4833 25.6153 19.1164V16.8718" stroke="#444444" stroke-width="2.02012" stroke-miterlimit="10" stroke-linecap="round" stroke-linejoin="round"/>
<path d="M3.16943 16.8718V19.1164C3.16943 22.4833 5.41401 24.7278 8.78086 24.7278H11.0254" stroke="#444444" stroke-width="2.02012" stroke-miterlimit="10" stroke-linecap="round" stroke-linejoin="round"/>
</svg>
