<svg width="18" height="18" viewBox="0 0 18 18" fill="none" xmlns="http://www.w3.org/2000/svg">
<g clip-path="url(#clip0_1196_2329)">
<g clip-path="url(#clip1_1196_2329)">
<path d="M8.4375 9.5625V6.75C8.4375 6.60082 8.49676 6.45774 8.60225 6.35225C8.70774 6.24676 8.85082 6.1875 9 6.1875C9.14918 6.1875 9.29226 6.24676 9.39775 6.35225C9.50324 6.45774 9.5625 6.60082 9.5625 6.75V9.5625C9.5625 9.71168 9.50324 9.85476 9.39775 9.96025C9.29226 10.0657 9.14918 10.125 9 10.125C8.85082 10.125 8.70774 10.0657 8.60225 9.96025C8.49676 9.85476 8.4375 9.71168 8.4375 9.5625ZM9 12.9375C9.16688 12.9375 9.33001 12.888 9.46876 12.7953C9.60752 12.7026 9.71566 12.5708 9.77952 12.4166C9.84338 12.2625 9.86009 12.0928 9.82754 11.9291C9.79498 11.7655 9.71462 11.6151 9.59662 11.4971C9.47862 11.3791 9.32828 11.2988 9.16461 11.2662C9.00094 11.2337 8.83129 11.2504 8.67711 11.3142C8.52294 11.3781 8.39116 11.4862 8.29845 11.625C8.20573 11.7637 8.15625 11.9269 8.15625 12.0938C8.15625 12.3175 8.24514 12.5321 8.40338 12.6904C8.56161 12.8486 8.77622 12.9375 9 12.9375ZM15.75 3.9375V7.875C15.75 11.5819 13.9556 13.8284 12.4502 15.0602C10.8288 16.3863 9.21586 16.837 9.14555 16.8553C9.04887 16.8816 8.94692 16.8816 8.85023 16.8553C8.77992 16.837 7.16906 16.3863 5.54555 15.0602C4.04438 13.8284 2.25 11.5819 2.25 7.875V3.9375C2.25 3.63913 2.36853 3.35298 2.5795 3.142C2.79048 2.93103 3.07663 2.8125 3.375 2.8125H14.625C14.9234 2.8125 15.2095 2.93103 15.4205 3.142C15.6315 3.35298 15.75 3.63913 15.75 3.9375ZM14.625 3.9375H3.375V7.875C3.375 10.4977 4.34672 12.6218 6.26273 14.1898C7.07853 14.857 8.00498 15.376 9 15.7233C10.0082 15.3698 10.9462 14.8414 11.771 14.1623C13.6645 12.5972 14.625 10.4815 14.625 7.875V3.9375Z" fill="#000B23"/>
</g>
</g>
<defs>
<clipPath id="clip0_1196_2329">
<rect width="18" height="18" fill="white"/>
</clipPath>
<clipPath id="clip1_1196_2329">
<rect width="18" height="18" fill="white"/>
</clipPath>
</defs>
</svg>
